<svg width="195" height="64" viewBox="0 0 195 64" fill="none" xmlns="http://www.w3.org/2000/svg">
<path d="M49.5963 25.0248H53.2985V10.5203H58.1418V7.02094H44.8037V10.5203H49.5963V25.0248Z" fill="#131722"/>
<path d="M58.1471 25.0248H61.6211V18.9644C61.6211 16.8597 62.7115 15.5918 64.3597 15.5918C64.943 15.5918 65.3994 15.6932 65.9319 15.8707V12.346C65.5008 12.2192 65.1458 12.1939 64.7655 12.1939C63.3454 12.1939 62.0522 13.1321 61.6211 14.3746V12.346H58.1471V25.0248Z" fill="#131722"/>
<path d="M72.5998 25.3037C74.3494 25.3037 75.668 24.4162 76.2513 23.6048V25.0248H79.7252V12.346H76.2513V13.7661C75.668 12.9546 74.3494 12.0671 72.5998 12.0671C69.2272 12.0671 66.6407 15.11 66.6407 18.6854C66.6407 22.2608 69.2272 25.3037 72.5998 25.3037ZM73.3351 22.1341C71.408 22.1341 70.1401 20.6887 70.1401 18.6854C70.1401 16.6822 71.408 15.2368 73.3351 15.2368C75.2623 15.2368 76.5302 16.6822 76.5302 18.6854C76.5302 20.6887 75.2623 22.1341 73.3351 22.1341Z" fill="#131722"/>
<path d="M87.9966 25.3037C89.7462 25.3037 91.0648 24.4162 91.648 23.6048V25.0248H95.122V6.00664H91.648V13.7661C91.0648 12.9546 89.7462 12.0671 87.9966 12.0671C84.624 12.0671 82.0375 15.11 82.0375 18.6854C82.0375 22.2608 84.624 25.3037 87.9966 25.3037ZM88.7319 22.1341C86.8048 22.1341 85.5369 20.6887 85.5369 18.6854C85.5369 16.6822 86.8048 15.2368 88.7319 15.2368C90.6591 15.2368 91.927 16.6822 91.927 18.6854C91.927 20.6887 90.6591 22.1341 88.7319 22.1341Z" fill="#131722"/>
<path d="M99.9701 10.2667C101.213 10.2667 102.202 9.27776 102.202 8.0606C102.202 6.84344 101.213 5.85449 99.9701 5.85449C98.7783 5.85449 97.764 6.84344 97.764 8.0606C97.764 9.27776 98.7783 10.2667 99.9701 10.2667ZM98.2458 25.0248H101.72V12.346H98.2458V25.0248Z" fill="#131722"/>
<path d="M104.802 25.0248H108.276V18.8376C108.276 16.4032 109.468 15.2368 111.091 15.2368C112.536 15.2368 113.322 16.3525 113.322 18.1783V25.0248H116.796V17.595C116.796 14.2986 114.97 12.0671 111.902 12.0671C110.254 12.0671 108.961 12.7771 108.276 13.7914V12.346H104.802V25.0248Z" fill="#131722"/>
<path d="M125.637 21.7283C123.887 21.7283 122.416 20.4097 122.416 18.4826C122.416 16.53 123.887 15.2368 125.637 15.2368C127.386 15.2368 128.857 16.53 128.857 18.4826C128.857 20.4097 127.386 21.7283 125.637 21.7283ZM125.231 30.5781C129.111 30.5781 132.052 28.6002 132.052 24.0359V12.346H128.578V13.7661C127.894 12.7771 126.524 12.0671 124.901 12.0671C121.579 12.0671 118.917 14.9071 118.917 18.4826C118.917 22.0326 121.579 24.8727 124.901 24.8727C126.524 24.8727 127.894 24.1373 128.578 23.1991V24.0612C128.578 26.0898 127.234 27.5352 125.18 27.5352C123.76 27.5352 122.34 27.0534 121.224 25.963L119.323 28.5495C120.768 29.9442 123.025 30.5781 125.231 30.5781Z" fill="#131722"/>
<path d="M139.397 25.0248H142.668L150.124 7.02094H146.066L141.046 19.5222L135.949 7.02094H131.968L139.397 25.0248Z" fill="#131722"/>
<path d="M153.311 10.2667C154.554 10.2667 155.543 9.27776 155.543 8.0606C155.543 6.84344 154.554 5.85449 153.311 5.85449C152.119 5.85449 151.105 6.84344 151.105 8.0606C151.105 9.27776 152.119 10.2667 153.311 10.2667ZM151.587 25.0248H155.061V12.346H151.587V25.0248Z" fill="#131722"/>
<path d="M164.051 25.3037C166.714 25.3037 168.743 24.188 169.934 22.4637L167.348 20.5365C166.765 21.424 165.674 22.1341 164.077 22.1341C162.403 22.1341 160.907 21.1958 160.704 19.4969H170.188C170.264 18.9644 170.239 18.6093 170.239 18.3051C170.239 14.1718 167.323 12.0671 164.001 12.0671C160.146 12.0671 157.332 14.9325 157.332 18.6854C157.332 22.6919 160.273 25.3037 164.051 25.3037ZM160.831 17.1386C161.161 15.5918 162.606 14.9325 163.899 14.9325C165.193 14.9325 166.46 15.6172 166.765 17.1386H160.831Z" fill="#131722"/>
<path d="M183.254 25.0248H186.702L190.886 12.346H187.159L184.775 20.4605L182.189 12.346H179.526L176.965 20.4605L174.556 12.346H170.854L175.063 25.0248H178.512L180.87 17.8233L183.254 25.0248Z" fill="#131722"/>
<path d="M16 25H9V14H2V7H16V25Z" fill="#131722"/>
<path d="M30 25H22L29.5 7H37.5L30 25Z" fill="#131722"/>
<circle cx="22" cy="11" r="4" fill="#131722"/>
<g clip-path="url(#clip0)">
<path d="M89.5 56H87L94.5 38H97L89.5 56Z" fill="#131722"/>
</g>
<path d="M1.99249 56H10.0811V53.9504H4.13359V43.007H1.99249V56ZM15.6837 56.183C18.3921 56.183 20.4783 54.0785 20.4783 51.425C20.4783 48.7715 18.3921 46.667 15.6837 46.667C12.9753 46.667 10.8891 48.7715 10.8891 51.425C10.8891 54.0785 12.9753 56.183 15.6837 56.183ZM15.6837 54.3164C14.055 54.3164 12.9204 53.0537 12.9204 51.425C12.9204 49.7963 14.055 48.5336 15.6837 48.5336C17.2941 48.5336 18.4287 49.7963 18.4287 51.425C18.4287 53.0537 17.2941 54.3164 15.6837 54.3164ZM26.6387 56.183C29.3471 56.183 31.4333 54.0785 31.4333 51.425C31.4333 48.7715 29.3471 46.667 26.6387 46.667C23.9303 46.667 21.8441 48.7715 21.8441 51.425C21.8441 54.0785 23.9303 56.183 26.6387 56.183ZM26.6387 54.3164C25.01 54.3164 23.8754 53.0537 23.8754 51.425C23.8754 49.7963 25.01 48.5336 26.6387 48.5336C28.2491 48.5336 29.3837 49.7963 29.3837 51.425C29.3837 53.0537 28.2491 54.3164 26.6387 54.3164ZM39.8446 56H42.4249L37.429 50.9309L41.5099 46.85H38.9662L35.4709 50.327V42.275H33.4579V56H35.4709V51.5897L39.8446 56ZM48.1324 56H50.1454V48.6434H52.7623V46.85H50.1454V45.5507C50.1454 44.3978 50.6395 43.9952 51.6826 43.9952C52.0669 43.9952 52.4695 44.0501 52.7623 44.1782V42.3848C52.378 42.2567 51.9022 42.1652 51.2617 42.1652C49.5049 42.1652 48.1324 43.2632 48.1324 45.3128V46.85H46.2292V48.6434H48.1324V56ZM55.3792 44.8553C56.1295 44.8553 56.7151 44.2514 56.7151 43.5011C56.7151 42.7691 56.1295 42.1652 55.3792 42.1652C54.6472 42.1652 54.025 42.7691 54.025 43.5011C54.025 44.2514 54.6472 44.8553 55.3792 44.8553ZM54.3727 56H56.3857V46.85H54.3727V56ZM59.1029 56H61.1159V51.5348C61.1159 49.7048 62.159 48.7349 63.3119 48.7349C63.6779 48.7349 63.9707 48.7715 64.3184 48.8996V46.8317C64.0805 46.7768 63.806 46.7585 63.5315 46.7585C62.4884 46.7585 61.4636 47.4356 61.1159 48.4787V46.85H59.1029V56ZM68.7858 56.183C70.6707 56.183 72.0981 55.1033 72.0981 53.3465C72.0981 51.8276 71.1465 51.059 69.5361 50.5649L68.6028 50.2904C67.7061 50.0159 67.5048 49.6499 67.5048 49.2107C67.5048 48.6434 68.127 48.3506 68.7309 48.3506C69.4812 48.3506 70.0485 48.7166 70.4694 49.2839L71.8602 48.2225C71.2197 47.1977 70.1583 46.667 68.7675 46.667C66.9375 46.667 65.4918 47.6735 65.4918 49.2839C65.4735 50.6564 66.2787 51.6446 67.8891 52.0838L68.6943 52.3034C69.7923 52.6511 70.1034 52.9439 70.1034 53.4746C70.1034 54.1151 69.4995 54.4445 68.7858 54.4445C67.8525 54.4445 66.9558 53.987 66.5898 53.1818L65.1075 54.2432C65.7663 55.5608 67.1571 56.183 68.7858 56.183ZM78.0321 56.0915C78.6726 56.0915 79.1118 56.0183 79.5327 55.8902V54.0968C79.2399 54.2249 78.8373 54.2798 78.453 54.2798C77.4099 54.2798 76.9158 53.8772 76.9158 52.7243V48.6434H79.5327V46.85H76.9158V44.3063H74.9028V46.85H72.9996V48.6434H74.9028V53.0537C74.9028 55.1216 76.2753 56.0915 78.0321 56.0915Z" fill="#131722"/>
<path d="M105.117 56H107.259V45.0566H111.047V43.007H101.348V45.0566H105.117V56ZM114.607 56V51.4982C114.607 49.5218 115.632 48.497 116.968 48.497C118.139 48.497 118.871 49.3571 118.871 50.8211V56H120.884V50.4917C120.884 48.1676 119.512 46.667 117.389 46.667C116.199 46.667 115.175 47.1611 114.607 48.0944V42.275H112.594V56H114.607ZM127.596 56.183C129.517 56.183 130.945 55.3778 131.768 54.0602L130.231 52.9622C129.737 53.7674 128.913 54.353 127.614 54.353C126.077 54.353 124.887 53.3831 124.796 51.8642H131.988C132.006 51.5714 132.006 51.4067 132.006 51.2054C132.006 48.2591 130.011 46.667 127.596 46.667C124.814 46.667 122.819 48.7349 122.819 51.425C122.819 54.2249 124.814 56.183 127.596 56.183ZM124.887 50.4002C125.18 49.046 126.333 48.3689 127.523 48.3689C128.694 48.3689 129.755 49.0826 129.975 50.4002H124.887ZM134.075 56H136.088V51.4982C136.088 49.5218 137.113 48.497 138.449 48.497C139.62 48.497 140.352 49.3571 140.352 50.8211V56H142.365V50.4917C142.365 48.1676 140.993 46.667 138.87 46.667C137.68 46.667 136.656 47.1611 136.088 48.0944V46.85H134.075V56ZM149.248 56H151.261V42.275H149.248V56ZM158.102 56.183C160.023 56.183 161.451 55.3778 162.274 54.0602L160.737 52.9622C160.243 53.7674 159.419 54.353 158.12 54.353C156.583 54.353 155.393 53.3831 155.302 51.8642H162.494C162.512 51.5714 162.512 51.4067 162.512 51.2054C162.512 48.2591 160.517 46.667 158.102 46.667C155.32 46.667 153.325 48.7349 153.325 51.425C153.325 54.2249 155.32 56.183 158.102 56.183ZM155.393 50.4002C155.686 49.046 156.839 48.3689 158.029 48.3689C159.2 48.3689 160.261 49.0826 160.481 50.4002H155.393ZM168.333 56.183C169.65 56.183 170.748 55.5059 171.261 54.7739V56H173.274V46.85H171.261V48.0761C170.748 47.3441 169.65 46.667 168.333 46.667C165.826 46.667 163.923 48.8081 163.923 51.425C163.923 54.0419 165.826 56.183 168.333 56.183ZM168.699 54.353C167.088 54.353 165.972 53.072 165.972 51.425C165.972 49.778 167.088 48.497 168.699 48.497C170.309 48.497 171.426 49.778 171.426 51.425C171.426 53.072 170.309 54.353 168.699 54.353ZM178.014 59.8247V54.7739C178.526 55.5059 179.643 56.183 180.96 56.183C183.467 56.183 185.371 54.0419 185.371 51.425C185.371 48.8081 183.467 46.667 180.96 46.667C179.643 46.667 178.526 47.3441 178.014 48.0761V46.85H176.001V59.8247H178.014ZM180.594 54.353C178.966 54.353 177.849 53.072 177.849 51.425C177.849 49.778 178.966 48.497 180.594 48.497C182.205 48.497 183.321 49.778 183.321 51.425C183.321 53.072 182.205 54.353 180.594 54.353Z" fill="#131722"/>
<circle cx="191" cy="54" r="2" fill="#131722"/>
<defs>
<clipPath id="clip0">
<rect width="10" height="13" fill="white" transform="translate(87 43)"/>
</clipPath>
</defs>
</svg>
